<svg width="30" height="30" viewBox="0 0 30 30" fill="none" xmlns="http://www.w3.org/2000/svg">
<path d="M16.2498 14.6875C16.0123 14.6875 15.7748 14.6 15.5873 14.4125C15.2248 14.05 15.2248 13.45 15.5873 13.0875L25.8373 2.83749C26.1998 2.47499 26.7998 2.47499 27.1623 2.83749C27.5248 3.19999 27.5248 3.79999 27.1623 4.16249L16.9123 14.4125C16.7248 14.6 16.4873 14.6875 16.2498 14.6875Z" fill="#272727"/>
<path d="M27.5 9.4375C26.9875 9.4375 26.5625 9.0125 26.5625 8.5V3.4375H21.5C20.9875 3.4375 20.5625 3.0125 20.5625 2.5C20.5625 1.9875 20.9875 1.5625 21.5 1.5625H27.5C28.0125 1.5625 28.4375 1.9875 28.4375 2.5V8.5C28.4375 9.0125 28.0125 9.4375 27.5 9.4375Z" fill="#272727"/>
<path d="M18.75 28.4375H11.25C4.4625 28.4375 1.5625 25.5375 1.5625 18.75V11.25C1.5625 4.4625 4.4625 1.5625 11.25 1.5625H13.75C14.2625 1.5625 14.6875 1.9875 14.6875 2.5C14.6875 3.0125 14.2625 3.4375 13.75 3.4375H11.25C5.4875 3.4375 3.4375 5.4875 3.4375 11.25V18.75C3.4375 24.5125 5.4875 26.5625 11.25 26.5625H18.75C24.5125 26.5625 26.5625 24.5125 26.5625 18.75V16.25C26.5625 15.7375 26.9875 15.3125 27.5 15.3125C28.0125 15.3125 28.4375 15.7375 28.4375 16.25V18.75C28.4375 25.5375 25.5375 28.4375 18.75 28.4375Z" fill="#272727"/>
</svg>
