<svg width="25" height="24" viewBox="0 0 25 24" fill="none" xmlns="http://www.w3.org/2000/svg">
<path d="M12.0155 10.07C10.4155 10.07 9.10547 8.76 9.10547 7.16C9.10547 5.56 10.4155 4.25 12.0155 4.25C13.6155 4.25 14.9255 5.56 14.9255 7.16C14.9255 8.76 13.6155 10.07 12.0155 10.07ZM12.0155 5.75C11.2355 5.75 10.6055 6.38 10.6055 7.16C10.6055 7.94 11.2355 8.57 12.0155 8.57C12.7955 8.57 13.4255 7.94 13.4255 7.16C13.4255 6.38 12.7955 5.75 12.0155 5.75Z" fill="#1B1E28"/>
<path d="M6.80453 19.75C5.20453 19.75 3.89453 18.44 3.89453 16.84C3.89453 15.24 5.20453 13.93 6.80453 13.93C8.40453 13.93 9.71453 15.24 9.71453 16.84C9.71453 18.44 8.40453 19.75 6.80453 19.75ZM6.80453 15.43C6.02453 15.43 5.39453 16.06 5.39453 16.84C5.39453 17.62 6.02453 18.25 6.80453 18.25C7.58453 18.25 8.21453 17.62 8.21453 16.84C8.21453 16.06 7.57453 15.43 6.80453 15.43Z" fill="#1B1E28"/>
<path d="M17.2264 19.75C15.6264 19.75 14.3164 18.44 14.3164 16.84C14.3164 15.24 15.6264 13.93 17.2264 13.93C18.8264 13.93 20.1364 15.24 20.1364 16.84C20.1364 18.44 18.8364 19.75 17.2264 19.75ZM17.2264 15.43C16.4464 15.43 15.8164 16.06 15.8164 16.84C15.8164 17.62 16.4464 18.25 17.2264 18.25C18.0064 18.25 18.6364 17.62 18.6364 16.84C18.6364 16.06 18.0064 15.43 17.2264 15.43Z" fill="#1B1E28"/>
</svg>
