<svg width="32" height="32" viewBox="0 0 32 32" fill="none" xmlns="http://www.w3.org/2000/svg">
<path d="M16 25.6666C10.6667 25.6666 6.33337 21.3333 6.33337 15.9999C6.33337 10.6666 10.6667 6.33325 16 6.33325C21.3334 6.33325 25.6667 10.6666 25.6667 15.9999C25.6667 21.3333 21.3334 25.6666 16 25.6666ZM16 8.33325C11.7734 8.33325 8.33337 11.7733 8.33337 15.9999C8.33337 20.2266 11.7734 23.6666 16 23.6666C20.2267 23.6666 23.6667 20.2266 23.6667 15.9999C23.6667 11.7733 20.2267 8.33325 16 8.33325Z" fill="#1B1E28"/>
<path d="M16 30.6133C15.2667 30.6133 14.6667 30.0666 14.6667 29.3333V29.2266C14.6667 28.4933 15.2667 27.8933 16 27.8933C16.7334 27.8933 17.3334 28.4933 17.3334 29.2266C17.3334 29.9599 16.7334 30.6133 16 30.6133ZM25.52 26.8533C25.1734 26.8533 24.84 26.7199 24.5734 26.4666L24.4 26.2933C23.88 25.7733 23.88 24.9333 24.4 24.4133C24.92 23.8933 25.76 23.8933 26.28 24.4133L26.4534 24.5866C26.9734 25.1066 26.9734 25.9466 26.4534 26.4666C26.2 26.7199 25.8667 26.8533 25.52 26.8533ZM6.48004 26.8533C6.13337 26.8533 5.80004 26.7199 5.53337 26.4666C5.01337 25.9466 5.01337 25.1066 5.53337 24.5866L5.70671 24.4133C6.22671 23.8933 7.06671 23.8933 7.58671 24.4133C8.10671 24.9333 8.10671 25.7733 7.58671 26.2933L7.41337 26.4666C7.16004 26.7199 6.81337 26.8533 6.48004 26.8533ZM29.3334 17.3333H29.2267C28.4934 17.3333 27.8934 16.7333 27.8934 15.9999C27.8934 15.2666 28.4934 14.6666 29.2267 14.6666C29.96 14.6666 30.6134 15.2666 30.6134 15.9999C30.6134 16.7333 30.0667 17.3333 29.3334 17.3333ZM2.77337 17.3333H2.66671C1.93337 17.3333 1.33337 16.7333 1.33337 15.9999C1.33337 15.2666 1.93337 14.6666 2.66671 14.6666C3.40004 14.6666 4.05337 15.2666 4.05337 15.9999C4.05337 16.7333 3.50671 17.3333 2.77337 17.3333ZM25.3467 7.98659C25 7.98659 24.6667 7.85325 24.4 7.59992C23.88 7.07992 23.88 6.23992 24.4 5.71992L24.5734 5.54659C25.0934 5.02659 25.9334 5.02659 26.4534 5.54659C26.9734 6.06659 26.9734 6.90659 26.4534 7.42659L26.28 7.59992C26.0267 7.85325 25.6934 7.98659 25.3467 7.98659ZM6.65337 7.98659C6.30671 7.98659 5.97337 7.85325 5.70671 7.59992L5.53337 7.41325C5.01337 6.89325 5.01337 6.05325 5.53337 5.53325C6.05337 5.01325 6.89337 5.01325 7.41337 5.53325L7.58671 5.70659C8.10671 6.22659 8.10671 7.06659 7.58671 7.58659C7.33337 7.85325 6.98671 7.98659 6.65337 7.98659ZM16 4.05325C15.2667 4.05325 14.6667 3.50659 14.6667 2.77325V2.66659C14.6667 1.93325 15.2667 1.33325 16 1.33325C16.7334 1.33325 17.3334 1.93325 17.3334 2.66659C17.3334 3.39992 16.7334 4.05325 16 4.05325Z" fill="#1B1E28"/>
</svg>
