<svg width="24" height="24" viewBox="0 0 24 24" fill="none" xmlns="http://www.w3.org/2000/svg">
<path d="M9.01043 21.25C8.82043 21.25 8.63043 21.18 8.48043 21.03L3.47043 16.02C3.18043 15.73 3.18043 15.25 3.47043 14.96C3.76043 14.67 4.24043 14.67 4.53043 14.96L9.54043 19.97C9.83043 20.26 9.83043 20.74 9.54043 21.03C9.39043 21.17 9.20043 21.25 9.01043 21.25Z" fill="#272727"/>
<path d="M9.00977 21.25C8.59977 21.25 8.25977 20.91 8.25977 20.5V3.5C8.25977 3.09 8.59977 2.75 9.00977 2.75C9.41977 2.75 9.75977 3.09 9.75977 3.5V20.5C9.75977 20.91 9.41977 21.25 9.00977 21.25Z" fill="#272727"/>
<path d="M20.0104 9.26C19.8204 9.26 19.6304 9.19 19.4804 9.04L14.4704 4.03C14.1804 3.74 14.1804 3.26 14.4704 2.97C14.7604 2.68 15.2404 2.68 15.5304 2.97L20.5404 7.98C20.8304 8.27 20.8304 8.75 20.5404 9.04C20.3904 9.19 20.2004 9.26 20.0104 9.26Z" fill="#272727"/>
<path d="M14.9902 21.25C14.5802 21.25 14.2402 20.91 14.2402 20.5V3.5C14.2402 3.09 14.5802 2.75 14.9902 2.75C15.4002 2.75 15.7402 3.09 15.7402 3.5V20.5C15.7402 20.91 15.4102 21.25 14.9902 21.25Z" fill="#272727"/>
</svg>
