<svg width="24" height="24" viewBox="0 0 24 24" fill="none" xmlns="http://www.w3.org/2000/svg">
<path d="M12 1.25C17.93 1.25 22.75 6.07 22.75 12C22.75 17.93 17.93 22.75 12 22.75C6.07 22.75 1.25 17.93 1.25 12C1.25 6.07 6.07 1.25 12 1.25ZM12 21.25C17.1 21.25 21.25 17.1 21.25 12C21.25 6.9 17.1 2.75 12 2.75C6.9 2.75 2.75 6.9 2.75 12C2.75 17.1 6.9 21.25 12 21.25Z" fill="#1ED5A7"/>
<path d="M13.2603 7.72C13.4503 7.72 13.6403 7.79 13.7903 7.94C14.0803 8.23 14.0803 8.71 13.7903 9L10.7903 12L13.7903 15C14.0803 15.29 14.0803 15.77 13.7903 16.06C13.5003 16.35 13.0203 16.35 12.7303 16.06L9.20031 12.53C8.91031 12.24 8.91031 11.76 9.20031 11.47L12.7303 7.94C12.8803 7.79 13.0703 7.72 13.2603 7.72Z" fill="#1ED5A7"/>
</svg>
