<svg width="24" height="24" viewBox="0 0 24 24" fill="none" xmlns="http://www.w3.org/2000/svg">
<path d="M9.17035 15.58C8.98035 15.58 8.79035 15.51 8.64035 15.36C8.35035 15.07 8.35035 14.59 8.64035 14.3L14.3004 8.63999C14.5904 8.34999 15.0704 8.34999 15.3604 8.63999C15.6504 8.92999 15.6504 9.40998 15.3604 9.69998L9.70035 15.36C9.56035 15.51 9.36035 15.58 9.17035 15.58Z" fill="#DC3545"/>
<path d="M14.8304 15.58C14.6404 15.58 14.4504 15.51 14.3004 15.36L8.64035 9.69998C8.35035 9.40998 8.35035 8.92999 8.64035 8.63999C8.93035 8.34999 9.41035 8.34999 9.70035 8.63999L15.3604 14.3C15.6504 14.59 15.6504 15.07 15.3604 15.36C15.2104 15.51 15.0204 15.58 14.8304 15.58Z" fill="#DC3545"/>
<path d="M15 22.75H9C3.57 22.75 1.25 20.43 1.25 15V9C1.25 3.57 3.57 1.25 9 1.25H15C20.43 1.25 22.75 3.57 22.75 9V15C22.75 20.43 20.43 22.75 15 22.75ZM9 2.75C4.39 2.75 2.75 4.39 2.75 9V15C2.75 19.61 4.39 21.25 9 21.25H15C19.61 21.25 21.25 19.61 21.25 15V9C21.25 4.39 19.61 2.75 15 2.75H9Z" fill="#DC3545"/>
</svg>
