<svg width="24" height="24" viewBox="0 0 24 24" fill="none" xmlns="http://www.w3.org/2000/svg">
<path d="M9 13.0002C8.34 13.3302 7.79 13.8202 7.38 14.4302C7.15 14.7802 7.15 15.2202 7.38 15.5702C7.79 16.1802 8.34 16.6702 9 17.0002" stroke="#272727" stroke-width="1.5" stroke-linecap="round" stroke-linejoin="round"/>
<path d="M15.21 13.0002C15.87 13.3302 16.42 13.8202 16.83 14.4302C17.06 14.7802 17.06 15.2202 16.83 15.5702C16.42 16.1802 15.87 16.6702 15.21 17.0002" stroke="#272727" stroke-width="1.5" stroke-linecap="round" stroke-linejoin="round"/>
<path d="M9 21.9998H15C20 21.9998 22 19.9998 22 14.9998V8.99976C22 3.99976 20 1.99976 15 1.99976H9C4 1.99976 2 3.99976 2 8.99976V14.9998C2 19.9998 4 21.9998 9 21.9998Z" stroke="#272727" stroke-width="1.5" stroke-linecap="round" stroke-linejoin="round"/>
<path d="M2.23 8.00976L21.45 7.99976" stroke="#272727" stroke-width="1.5" stroke-linecap="round" stroke-linejoin="round"/>
</svg>
