<svg width="25" height="24" viewBox="0 0 25 24" fill="none" xmlns="http://www.w3.org/2000/svg">
<path d="M15.7605 22.25H9.24047C4.33047 22.25 2.23047 20.15 2.23047 15.24V15.11C2.23047 10.67 3.98047 8.53003 7.90047 8.16003C8.30047 8.13003 8.68047 8.43003 8.72047 8.84003C8.76047 9.25003 8.46047 9.62003 8.04047 9.66003C4.90047 9.95003 3.73047 11.43 3.73047 15.12V15.25C3.73047 19.32 5.17047 20.76 9.24047 20.76H15.7605C19.8305 20.76 21.2705 19.32 21.2705 15.25V15.12C21.2705 11.41 20.0805 9.93003 16.8805 9.66003C16.4705 9.62003 16.1605 9.26003 16.2005 8.85003C16.2405 8.44003 16.5905 8.13003 17.0105 8.17003C20.9905 8.51003 22.7705 10.66 22.7705 15.13V15.26C22.7705 20.15 20.6705 22.25 15.7605 22.25Z" fill="white"/>
<path d="M12.5 15.75C12.09 15.75 11.75 15.41 11.75 15V3.62C11.75 3.21 12.09 2.87 12.5 2.87C12.91 2.87 13.25 3.21 13.25 3.62V15C13.25 15.41 12.91 15.75 12.5 15.75Z" fill="white"/>
<path d="M15.8498 6.6C15.6598 6.6 15.4698 6.53 15.3198 6.38L12.4998 3.56L9.67984 6.38C9.38984 6.67 8.90984 6.67 8.61984 6.38C8.32984 6.09 8.32984 5.61 8.61984 5.32L11.9698 1.97C12.2598 1.68 12.7398 1.68 13.0298 1.97L16.3798 5.32C16.6698 5.61 16.6698 6.09 16.3798 6.38C16.2398 6.53 16.0398 6.6 15.8498 6.6Z" fill="white"/>
</svg>
