<svg width="24" height="24" viewBox="0 0 24 24" fill="none" xmlns="http://www.w3.org/2000/svg">
<path d="M15.2405 22.27H15.1105C10.6705 22.27 8.5305 20.52 8.1605 16.6C8.1205 16.19 8.4205 15.82 8.8405 15.78C9.2505 15.74 9.6205 16.05 9.6605 16.46C9.9505 19.6 11.4305 20.77 15.1205 20.77H15.2505C19.3205 20.77 20.7605 19.33 20.7605 15.26V8.74001C20.7605 4.67001 19.3205 3.23001 15.2505 3.23001H15.1205C11.4105 3.23001 9.9305 4.42001 9.6605 7.62001C9.6105 8.03001 9.2705 8.34001 8.8405 8.30001C8.4205 8.27001 8.1205 7.90001 8.1505 7.49001C8.4905 3.51001 10.6405 1.73001 15.1105 1.73001H15.2405C20.1505 1.73001 22.2505 3.83001 22.2505 8.74001V15.26C22.2505 20.17 20.1505 22.27 15.2405 22.27Z" fill="#272727"/>
<path d="M14.88 12.75H2C1.59 12.75 1.25 12.41 1.25 12C1.25 11.59 1.59 11.25 2 11.25H14.88C15.29 11.25 15.63 11.59 15.63 12C15.63 12.41 15.3 12.75 14.88 12.75Z" fill="#272727"/>
<path d="M12.6498 16.1C12.4598 16.1 12.2698 16.03 12.1198 15.88C11.8298 15.59 11.8298 15.11 12.1198 14.82L14.9398 12L12.1198 9.18C11.8298 8.89 11.8298 8.41 12.1198 8.12C12.4098 7.83 12.8898 7.83 13.1798 8.12L16.5298 11.47C16.8198 11.76 16.8198 12.24 16.5298 12.53L13.1798 15.88C13.0298 16.03 12.8398 16.1 12.6498 16.1Z" fill="#272727"/>
</svg>
