<svg width="25" height="24" viewBox="0 0 25 24" fill="none" xmlns="http://www.w3.org/2000/svg">
<path d="M15.7405 22.27H15.6105C11.1705 22.27 9.0305 20.52 8.6605 16.6C8.6205 16.19 8.9205 15.82 9.3405 15.78C9.7505 15.74 10.1205 16.05 10.1605 16.46C10.4505 19.6 11.9305 20.77 15.6205 20.77H15.7505C19.8205 20.77 21.2605 19.33 21.2605 15.26V8.73998C21.2605 4.66998 19.8205 3.22998 15.7505 3.22998H15.6205C11.9105 3.22998 10.4305 4.41998 10.1605 7.61998C10.1105 8.02998 9.7705 8.33998 9.3405 8.29998C8.9205 8.26998 8.6205 7.89998 8.6505 7.48998C8.9905 3.50998 11.1405 1.72998 15.6105 1.72998H15.7405C20.6505 1.72998 22.7505 3.82998 22.7505 8.73998V15.26C22.7505 20.17 20.6505 22.27 15.7405 22.27Z" fill="white"/>
<path d="M15.38 12.75H2.5C2.09 12.75 1.75 12.41 1.75 12C1.75 11.59 2.09 11.25 2.5 11.25H15.38C15.79 11.25 16.13 11.59 16.13 12C16.13 12.41 15.8 12.75 15.38 12.75Z" fill="white"/>
<path d="M13.1498 16.1C12.9598 16.1 12.7698 16.03 12.6198 15.88C12.3298 15.59 12.3298 15.11 12.6198 14.82L15.4398 12L12.6198 9.18003C12.3298 8.89003 12.3298 8.41003 12.6198 8.12003C12.9098 7.83003 13.3898 7.83003 13.6798 8.12003L17.0298 11.47C17.3198 11.76 17.3198 12.24 17.0298 12.53L13.6798 15.88C13.5298 16.03 13.3398 16.1 13.1498 16.1Z" fill="white"/>
</svg>
