<svg width="32" height="32" viewBox="0 0 32 32" fill="none" xmlns="http://www.w3.org/2000/svg">
<path d="M10.6666 29.7598C10.2933 29.7598 9.9066 29.6666 9.55994 29.4799C8.79994 29.0799 8.33329 28.2798 8.33329 27.4265V25.5333C4.30663 25.1199 1.66663 22.1598 1.66663 17.9198V9.91992C1.66663 5.33325 4.74663 2.25325 9.33329 2.25325H22.6666C27.2533 2.25325 30.3333 5.33325 30.3333 9.91992V17.9198C30.3333 22.5065 27.2533 25.5865 22.6666 25.5865H17.6399L11.9599 29.3733C11.5733 29.6266 11.12 29.7598 10.6666 29.7598ZM9.33329 4.2399C5.89329 4.2399 3.66663 6.46657 3.66663 9.90657V17.9067C3.66663 21.3467 5.89329 23.5733 9.33329 23.5733C9.87996 23.5733 10.3333 24.0267 10.3333 24.5733V27.4133C10.3333 27.5867 10.44 27.6666 10.5066 27.7066C10.5733 27.7466 10.7066 27.7866 10.8533 27.6933L16.7867 23.7467C16.9467 23.64 17.1466 23.5733 17.3466 23.5733H22.68C26.12 23.5733 28.3466 21.3467 28.3466 17.9067V9.90657C28.3466 6.46657 26.12 4.2399 22.68 4.2399H9.33329Z" fill="#1B1E28"/>
<path d="M15.9998 16.1467C15.4531 16.1467 14.9998 15.6933 14.9998 15.1467V14.8667C14.9998 13.32 16.1331 12.56 16.5598 12.2667C17.0531 11.9334 17.2131 11.7067 17.2131 11.36C17.2131 10.6934 16.6665 10.1467 15.9998 10.1467C15.3331 10.1467 14.7865 10.6934 14.7865 11.36C14.7865 11.9067 14.3332 12.36 13.7865 12.36C13.2398 12.36 12.7865 11.9067 12.7865 11.36C12.7865 9.5867 14.2265 8.14665 15.9998 8.14665C17.7731 8.14665 19.2131 9.5867 19.2131 11.36C19.2131 12.88 18.0931 13.64 17.6798 13.92C17.1598 14.2667 16.9998 14.4934 16.9998 14.8667V15.1467C16.9998 15.7067 16.5465 16.1467 15.9998 16.1467Z" fill="#1B1E28"/>
<path d="M16 19.4666C15.44 19.4666 15 19.0133 15 18.4666C15 17.92 15.4533 17.4666 16 17.4666C16.5467 17.4666 17 17.92 17 18.4666C17 19.0133 16.56 19.4666 16 19.4666Z" fill="#1B1E28"/>
</svg>
