<svg width="32" height="32" viewBox="0 0 32 32" fill="none" xmlns="http://www.w3.org/2000/svg">
<path d="M16.6133 30.3333C16.3867 30.3333 16.16 30.3333 15.9333 30.32C8.46668 29.9867 2.22668 23.9733 1.70668 16.64C1.25335 10.3467 4.89334 4.46667 10.76 2C12.4267 1.30667 13.3067 1.84 13.68 2.22667C14.0533 2.6 14.5733 3.46667 13.88 5.05333C13.2667 6.46667 12.96 7.97333 12.9733 9.52C13 15.4267 17.9067 20.44 23.8933 20.68C24.76 20.72 25.6133 20.6533 26.44 20.5067C28.2 20.1867 28.9333 20.8933 29.2133 21.3467C29.4933 21.8 29.8133 22.7733 28.7467 24.2133C25.92 28.08 21.4267 30.3333 16.6133 30.3333ZM3.69335 16.4933C4.14668 22.84 9.56001 28.04 16.0133 28.32C20.4 28.5333 24.56 26.5333 27.12 23.04C27.32 22.76 27.4133 22.56 27.4533 22.4533C27.3333 22.44 27.12 22.4267 26.7867 22.4933C25.8133 22.6667 24.8 22.7333 23.8 22.6933C16.76 22.4133 11 16.5067 10.96 9.54667C10.96 7.70667 11.32 5.93333 12.0533 4.26667C12.1867 3.97333 12.2133 3.77333 12.2267 3.66667C12.1067 3.66667 11.8933 3.69333 11.5467 3.84C6.46668 5.97333 3.32001 11.0667 3.69335 16.4933Z" fill="#1B1E28"/>
</svg>
