<svg width="18" height="18" viewBox="0 0 18 18" fill="none" xmlns="http://www.w3.org/2000/svg">
<path d="M11.4444 16.6875H6.55438C2.87188 16.6875 1.29688 15.1125 1.29688 11.43V11.3325C1.29688 8.0025 2.60938 6.3975 5.54938 6.12C5.84938 6.0975 6.13438 6.3225 6.16438 6.63C6.19438 6.9375 5.96938 7.215 5.65438 7.245C3.29938 7.4625 2.42188 8.5725 2.42188 11.34V11.4375C2.42188 14.49 3.50187 15.57 6.55438 15.57H11.4444C14.4969 15.57 15.5769 14.49 15.5769 11.4375V11.34C15.5769 8.5575 14.6844 7.4475 12.2844 7.245C11.9769 7.215 11.7444 6.945 11.7744 6.6375C11.8044 6.33 12.0669 6.0975 12.3819 6.1275C15.3669 6.3825 16.7019 7.995 16.7019 11.3475V11.445C16.7019 15.1125 15.1269 16.6875 11.4444 16.6875Z" fill="#868686"/>
<path d="M9 11.7225C8.6925 11.7225 8.4375 11.4675 8.4375 11.16V1.5C8.4375 1.1925 8.6925 0.9375 9 0.9375C9.3075 0.9375 9.5625 1.1925 9.5625 1.5V11.16C9.5625 11.475 9.3075 11.7225 9 11.7225Z" fill="#868686"/>
<path d="M8.99891 12.5625C8.85641 12.5625 8.71391 12.51 8.60141 12.3975L6.08891 9.885C5.87141 9.6675 5.87141 9.3075 6.08891 9.09C6.30641 8.8725 6.66641 8.8725 6.88391 9.09L8.99891 11.205L11.1139 9.09C11.3314 8.8725 11.6914 8.8725 11.9089 9.09C12.1264 9.3075 12.1264 9.6675 11.9089 9.885L9.39641 12.3975C9.28391 12.51 9.14141 12.5625 8.99891 12.5625Z" fill="#868686"/>
</svg>
