<svg width="18" height="18" viewBox="0 0 18 18" fill="none" xmlns="http://www.w3.org/2000/svg">
<path d="M11.25 17.0625H6.75C2.6775 17.0625 0.9375 15.3225 0.9375 11.25V6.75C0.9375 2.6775 2.6775 0.9375 6.75 0.9375H8.25C8.5575 0.9375 8.8125 1.1925 8.8125 1.5C8.8125 1.8075 8.5575 2.0625 8.25 2.0625H6.75C3.2925 2.0625 2.0625 3.2925 2.0625 6.75V11.25C2.0625 14.7075 3.2925 15.9375 6.75 15.9375H11.25C14.7075 15.9375 15.9375 14.7075 15.9375 11.25V9.75C15.9375 9.4425 16.1925 9.1875 16.5 9.1875C16.8075 9.1875 17.0625 9.4425 17.0625 9.75V11.25C17.0625 15.3225 15.3225 17.0625 11.25 17.0625Z" fill="#868686"/>
<path d="M6.37549 13.2675C5.91799 13.2675 5.49799 13.1025 5.19049 12.8025C4.82299 12.435 4.66549 11.9025 4.74799 11.34L5.07049 9.0825C5.13049 8.6475 5.41549 8.085 5.72299 7.7775L11.633 1.8675C13.1255 0.375 14.6405 0.375 16.133 1.8675C16.9505 2.685 17.318 3.5175 17.243 4.35C17.1755 5.025 16.8155 5.685 16.133 6.36L10.223 12.27C9.91549 12.5775 9.35299 12.8625 8.91799 12.9225L6.66049 13.245C6.56299 13.2675 6.46549 13.2675 6.37549 13.2675ZM12.428 2.6625L6.51799 8.5725C6.37549 8.715 6.21049 9.045 6.18049 9.24L5.85799 11.4975C5.82799 11.715 5.87299 11.895 5.98549 12.0075C6.09799 12.12 6.27799 12.165 6.49549 12.135L8.75299 11.8125C8.94799 11.7825 9.28549 11.6175 9.42049 11.475L15.3305 5.565C15.818 5.0775 16.073 4.6425 16.1105 4.2375C16.1555 3.75 15.9005 3.2325 15.3305 2.655C14.1305 1.455 13.3055 1.7925 12.428 2.6625Z" fill="#868686"/>
<path d="M14.8867 7.3725C14.8342 7.3725 14.7817 7.365 14.7367 7.35C12.7642 6.795 11.1967 5.2275 10.6417 3.255C10.5592 2.955 10.7317 2.6475 11.0317 2.5575C11.3317 2.475 11.6392 2.6475 11.7217 2.9475C12.1717 4.545 13.4392 5.8125 15.0367 6.2625C15.3367 6.345 15.5092 6.66 15.4267 6.96C15.3592 7.215 15.1342 7.3725 14.8867 7.3725Z" fill="#868686"/>
</svg>
