<svg width="19" height="18" viewBox="0 0 19 18" fill="none" xmlns="http://www.w3.org/2000/svg">
<path d="M11.9284 16.7025H11.8309C8.50092 16.7025 6.89592 15.39 6.61842 12.45C6.58842 12.1425 6.81342 11.865 7.12842 11.835C7.43592 11.805 7.71342 12.0375 7.74342 12.345C7.96092 14.7 9.07092 15.5775 11.8384 15.5775H11.9359C14.9884 15.5775 16.0684 14.4975 16.0684 11.445V6.555C16.0684 3.5025 14.9884 2.4225 11.9359 2.4225H11.8384C9.05592 2.4225 7.94592 3.315 7.74342 5.715C7.70592 6.0225 7.45092 6.255 7.12842 6.225C6.81342 6.2025 6.58842 5.925 6.61092 5.6175C6.86592 2.6325 8.47842 1.2975 11.8309 1.2975H11.9284C15.6109 1.2975 17.1859 2.8725 17.1859 6.555V11.445C17.1859 15.1275 15.6109 16.7025 11.9284 16.7025Z" fill="#868686"/>
<path d="M11.66 9.5625H2C1.6925 9.5625 1.4375 9.3075 1.4375 9C1.4375 8.6925 1.6925 8.4375 2 8.4375H11.66C11.9675 8.4375 12.2225 8.6925 12.2225 9C12.2225 9.3075 11.975 9.5625 11.66 9.5625Z" fill="#868686"/>
<path d="M9.98641 12.075C9.84391 12.075 9.70141 12.0225 9.58891 11.91C9.37141 11.6925 9.37141 11.3325 9.58891 11.115L11.7039 9L9.58891 6.885C9.37141 6.6675 9.37141 6.3075 9.58891 6.09C9.80641 5.8725 10.1664 5.8725 10.3839 6.09L12.8964 8.6025C13.1139 8.82 13.1139 9.18 12.8964 9.3975L10.3839 11.91C10.2714 12.0225 10.1289 12.075 9.98641 12.075Z" fill="#868686"/>
</svg>
