<svg width="32" height="32" viewBox="0 0 32 32" fill="none" xmlns="http://www.w3.org/2000/svg">
<path d="M16 14.0267C15.4533 14.0267 15 13.5733 15 13.0267V8.58667C15 8.04 15.4533 7.58667 16 7.58667C16.5467 7.58667 17 8.04 17 8.58667V13.0267C17 13.5867 16.5467 14.0267 16 14.0267Z" fill="#1B1E28"/>
<path d="M16.0267 27.1333C12.5867 27.1333 9.15999 26.5867 5.89332 25.4933C4.67999 25.0933 3.75999 24.2267 3.35999 23.1333C2.95999 22.04 3.09332 20.7867 3.74665 19.6933L5.43999 16.8667C5.81332 16.24 6.14665 15.0667 6.14665 14.3333V11.5333C6.14665 6.08 10.5733 1.65334 16.0267 1.65334C21.48 1.65334 25.9067 6.08 25.9067 11.5333V14.3333C25.9067 15.0533 26.24 16.24 26.6133 16.8667L28.3067 19.6933C28.9333 20.7333 29.04 21.9733 28.6267 23.1067C28.2133 24.24 27.3067 25.1067 26.16 25.4933C22.8933 26.6 19.4667 27.1333 16.0267 27.1333ZM16.0267 3.66667C11.68 3.66667 8.14665 7.2 8.14665 11.5467V14.3467C8.14665 15.4267 7.71999 16.9867 7.15999 17.9067L5.46665 20.7467C5.11999 21.32 5.03999 21.9333 5.23999 22.4667C5.43999 23 5.89332 23.4 6.53332 23.6133C12.6667 25.6533 19.4133 25.6533 25.5467 23.6133C26.12 23.4267 26.56 23 26.76 22.44C26.9733 21.88 26.9067 21.2667 26.6 20.7467L24.9067 17.92C24.3467 17 23.92 15.44 23.92 14.36V11.56C23.9067 7.2 20.3733 3.66667 16.0267 3.66667Z" fill="#1B1E28"/>
<path d="M16.0001 30.5333C14.5734 30.5333 13.1734 29.9467 12.1601 28.9333C11.1467 27.92 10.5601 26.52 10.5601 25.0933H12.5601C12.5601 26 12.9334 26.88 13.5734 27.52C14.2134 28.16 15.0934 28.5333 16.0001 28.5333C17.8934 28.5333 19.4401 26.9867 19.4401 25.0933H21.4401C21.4401 28.0933 19.0001 30.5333 16.0001 30.5333Z" fill="#1B1E28"/>
</svg>
