<svg width="18" height="18" viewBox="0 0 18 18" fill="none" xmlns="http://www.w3.org/2000/svg">
<circle cx="9" cy="9" r="8.3" stroke="#272727" stroke-width="1.4"/>
<path d="M9.05854 10.9699C8.59834 10.9699 8.21672 10.5882 8.21672 10.128V9.89238C8.21672 8.59036 9.17076 7.95056 9.52994 7.70363C9.94524 7.42302 10.0799 7.23221 10.0799 6.94038C10.0799 6.37917 9.61975 5.91893 9.05854 5.91893C8.49732 5.91893 8.03716 6.37917 8.03716 6.94038C8.03716 7.40058 7.65553 7.7822 7.19534 7.7822C6.73514 7.7822 6.35352 7.40058 6.35352 6.94038C6.35352 5.44755 7.56571 4.23529 9.05854 4.23529C10.5514 4.23529 11.7636 5.44755 11.7636 6.94038C11.7636 8.21995 10.8208 8.85972 10.4728 9.09543C10.0351 9.38726 9.90036 9.5781 9.90036 9.89238V10.128C9.90036 10.5995 9.51874 10.9699 9.05854 10.9699Z" fill="#272727"/>
<path d="M9.05862 13.7647C8.5872 13.7647 8.2168 13.3831 8.2168 12.9229C8.2168 12.4627 8.59842 12.0811 9.05862 12.0811C9.51881 12.0811 9.90044 12.4627 9.90044 12.9229C9.90044 13.3831 9.53004 13.7647 9.05862 13.7647Z" fill="#272727"/>
</svg>
