<svg width="80" height="80" viewBox="0 0 80 80" fill="none" xmlns="http://www.w3.org/2000/svg">
<g clip-path="url(#clip0_511_12763)">
<path fill-rule="evenodd" clip-rule="evenodd" d="M20.7153 73.3919C14.9039 73.3919 13.3105 67.44 15.7475 67.44C16.3099 67.44 16.7786 67.9086 16.7786 68.471C16.7786 69.9707 18.6063 71.2361 20.7153 71.2361C22.8711 71.2361 24.6989 69.9707 24.6989 68.471C24.6989 66.6432 23.4804 66.2214 20.5278 65.7059C18.0439 65.2373 14.6696 64.628 14.6696 60.8319C14.6696 58.1605 17.3878 55.9578 20.7153 55.9578C26.5266 55.9578 28.1201 61.9098 25.7299 61.9098C25.1675 61.9098 24.6989 61.4411 24.6989 60.8319C24.6989 59.3322 22.8711 58.0668 20.7153 58.0668C18.6063 58.0668 16.7786 59.3322 16.7786 60.8319C16.7786 62.6596 17.9971 63.0814 20.9027 63.597C23.3866 64.0656 26.8078 64.6749 26.8078 68.471C26.8078 71.1892 24.0896 73.3919 20.7153 73.3919ZM68.1435 51.4587H9.32688C6.98359 51.4587 5.06209 53.3802 5.06209 55.6766V73.6262C5.06209 75.9695 6.98359 77.8442 9.32688 77.8442H70.6743C73.0176 77.8442 74.8922 75.9695 74.8922 73.6262V55.6766C74.8922 53.3802 73.0176 51.4587 70.6743 51.4587H68.1435ZM67.1125 49.3497V15.372H58.3017C55.8647 15.372 53.8494 13.3568 53.8494 10.9197V2.10896H21.1371C16.5911 2.10896 12.8887 5.85823 12.8887 10.4042V49.3497H67.1125ZM69.2214 14.4815V49.3497H70.6743C74.1892 49.3497 77.048 52.2086 77.048 55.6766V73.6262C77.048 77.1412 74.1892 80 70.6743 80H9.32688C5.81194 80 2.95312 77.1412 2.95312 73.6262V55.6766C2.95312 52.2086 5.81194 49.3497 9.32688 49.3497H10.7797V10.4042C10.7797 4.68658 15.4194 0 21.1371 0H54.9274C55.2554 0 55.4897 0.140598 55.7241 0.328061L68.8465 13.4505C69.1277 13.7317 69.3152 14.0598 69.2214 14.4815ZM56.0053 3.65554V10.9197C56.0053 12.1851 57.0363 13.2162 58.3017 13.2162H65.6128L56.0053 3.65554ZM59.4265 43.304H22.0275C20.6216 43.304 20.6216 41.1482 22.0275 41.1482H59.4265C60.8325 41.1482 60.8325 43.304 59.4265 43.304ZM59.4265 35.1025H22.0275C20.6216 35.1025 20.6216 32.9936 22.0275 32.9936H59.4265C60.8325 32.9936 60.8325 35.1025 59.4265 35.1025ZM59.4265 26.9479H22.0275C20.6216 26.9479 20.6216 24.792 22.0275 24.792H59.4265C60.8325 24.792 60.8325 26.9479 59.4265 26.9479ZM46.2572 19.4962C45.3199 19.4962 44.8512 18.3245 45.5073 17.6684L49.7721 13.4036L45.5073 9.09197C44.5231 8.10779 46.0228 6.60808 47.007 7.59227L52.0685 12.6069C52.4435 13.0287 52.4435 13.7317 52.0685 14.1535L47.007 19.1681C46.8196 19.3556 46.5384 19.4962 46.2572 19.4962ZM35.0562 19.4962C34.775 19.4962 34.4938 19.3556 34.3064 19.1681L29.2917 14.1535C28.8699 13.7317 28.8699 13.0287 29.2917 12.6069L34.3064 7.59227C35.2906 6.60808 36.7903 8.10779 35.8061 9.09197L31.5413 13.4036L35.8061 17.6684C36.4622 18.3245 35.9935 19.4962 35.0562 19.4962ZM39.321 19.6837C38.618 19.6837 38.1025 18.9807 38.29 18.3245L41.0082 8.20152C41.3363 6.84241 43.3984 7.4048 43.0234 8.71705L40.3521 18.8869C40.2115 19.3556 39.7897 19.6837 39.321 19.6837ZM39.6491 73.3919C28.8231 73.3919 28.8231 55.9578 39.6491 55.9578C47.1476 55.9578 49.6784 64.4874 46.3978 69.7364C47.5225 70.908 49.1629 72.0328 48.1787 73.017C47.7569 73.4388 47.0539 73.4388 46.6321 73.017L45.0387 71.3767C43.6796 72.5952 41.8986 73.3919 39.6491 73.3919ZM39.6491 58.0668C31.635 58.0668 31.5882 71.2361 39.6491 71.2361C41.2894 71.2361 42.5548 70.7206 43.4921 69.877C42.7422 69.1271 41.43 68.1429 42.3673 67.2056C43.2578 66.3152 44.1951 67.5337 44.8512 68.1898C46.8664 64.2999 45.1793 58.0668 39.6491 58.0668ZM64.2537 73.345H54.7399C54.1306 73.345 53.662 72.8764 53.662 72.314V57.0357C53.662 55.6298 55.8178 55.6298 55.8178 57.0357V71.2361H64.2537C65.6596 71.2361 65.6596 73.345 64.2537 73.345Z" fill="#1ED5A7"/>
</g>
<defs>
<clipPath id="clip0_511_12763">
<rect width="80" height="80" fill="white"/>
</clipPath>
</defs>
</svg>
