<svg width="24" height="24" viewBox="0 0 24 24" fill="none" xmlns="http://www.w3.org/2000/svg">
<path d="M11 17.75C10.81 17.75 10.62 17.68 10.47 17.53C10.18 17.24 10.18 16.76 10.47 16.47L11.19 15.75H7C6.59 15.75 6.25 15.41 6.25 15C6.25 14.59 6.59 14.25 7 14.25H11.19L10.47 13.53C10.32 13.38 10.25 13.19 10.25 13C10.25 12.81 10.32 12.62 10.47 12.47C10.76 12.18 11.24 12.18 11.53 12.47L13.53 14.47C13.66 14.6 13.73 14.77 13.74 14.93C13.74 14.98 13.74 15.04 13.74 15.09C13.72 15.23 13.66 15.36 13.56 15.48C13.55 15.49 13.53 15.51 13.52 15.52L11.52 17.52C11.38 17.68 11.19 17.75 11 17.75Z" fill="#272727"/>
<path d="M15 22.75H9C3.57 22.75 1.25 20.43 1.25 15V9C1.25 3.57 3.57 1.25 9 1.25H14C14.41 1.25 14.75 1.59 14.75 2C14.75 2.41 14.41 2.75 14 2.75H9C4.39 2.75 2.75 4.39 2.75 9V15C2.75 19.61 4.39 21.25 9 21.25H15C19.61 21.25 21.25 19.61 21.25 15V10C21.25 9.59 21.59 9.25 22 9.25C22.41 9.25 22.75 9.59 22.75 10V15C22.75 20.43 20.43 22.75 15 22.75Z" fill="#272727"/>
<path d="M22 10.75H18C14.58 10.75 13.25 9.41999 13.25 5.99999V1.99999C13.25 1.69999 13.43 1.41999 13.71 1.30999C13.99 1.18999 14.31 1.25999 14.53 1.46999L22.53 9.46999C22.74 9.67999 22.81 10.01 22.69 10.29C22.57 10.57 22.3 10.75 22 10.75ZM14.75 3.80999V5.99999C14.75 8.57999 15.42 9.24999 18 9.24999H20.19L14.75 3.80999Z" fill="#272727"/>
</svg>
