<svg width="150" height="28" viewBox="0 0 150 28" fill="none" xmlns="http://www.w3.org/2000/svg">
<path d="M0.409547 6.408V1.8H20.4615V5.364L7.53755 22.392H20.7855V27H0.0855469V23.436L13.0095 6.408H0.409547ZM26.0055 6.516C24.3495 6.516 23.0535 5.292 23.0535 3.672C23.0535 2.016 24.3495 0.791998 26.0055 0.791998C27.6615 0.791998 28.9575 2.016 28.9575 3.672C28.9575 5.292 27.6615 6.516 26.0055 6.516ZM23.4495 27V8.496H28.5615V27H23.4495ZM32.0628 27V1.8H37.1388V27H32.0628ZM40.6761 27V1.8H45.7521V27H40.6761ZM66.9294 22.716H67.5054V27H64.9134C62.2854 27 61.4574 25.74 61.4934 23.976C60.1974 26.028 58.3254 27.216 55.4454 27.216C51.4494 27.216 48.5694 25.308 48.5694 21.78C48.5694 17.856 51.5214 15.624 57.0654 15.624H60.7374V14.724C60.7374 13.068 59.5494 11.988 57.4254 11.988C55.4454 11.988 54.1134 12.888 53.8974 14.256H49.0014C49.3614 10.656 52.6734 8.28 57.5694 8.28C62.7534 8.28 65.7414 10.584 65.7414 15.012V21.564C65.7414 22.536 66.1374 22.716 66.9294 22.716ZM60.7374 19.368V19.008H57.0294C54.9054 19.008 53.6814 19.872 53.6814 21.42C53.6814 22.716 54.7254 23.544 56.4174 23.544C59.0814 23.544 60.7014 21.888 60.7374 19.368Z" fill="white"/>
<path d="M69.8651 27V1.8H79.4411C85.2731 1.8 88.6571 4.248 88.6571 8.46C88.6571 11.628 86.7851 13.428 83.9051 14.04C87.2531 14.472 89.5571 16.236 89.5571 19.836C89.5571 24.228 86.1011 27 79.9091 27H69.8651ZM79.5851 6.048H75.2651V12.168H79.5851C81.8891 12.168 83.2571 10.98 83.2571 9.108C83.2571 7.236 81.9251 6.048 79.5851 6.048ZM79.9451 16.344H75.2651V22.716H79.9451C82.5371 22.716 84.0131 21.528 84.0131 19.584C84.0131 17.532 82.5011 16.344 79.9451 16.344ZM110.031 22.716H110.607V27H108.015C105.387 27 104.559 25.74 104.595 23.976C103.299 26.028 101.427 27.216 98.547 27.216C94.551 27.216 91.671 25.308 91.671 21.78C91.671 17.856 94.623 15.624 100.167 15.624H103.839V14.724C103.839 13.068 102.651 11.988 100.527 11.988C98.547 11.988 97.215 12.888 96.999 14.256H92.103C92.463 10.656 95.775 8.28 100.671 8.28C105.855 8.28 108.843 10.584 108.843 15.012V21.564C108.843 22.536 109.239 22.716 110.031 22.716ZM103.839 19.368V19.008H100.131C98.007 19.008 96.783 19.872 96.783 21.42C96.783 22.716 97.827 23.544 99.519 23.544C102.183 23.544 103.803 21.888 103.839 19.368ZM111.707 20.844H116.531C116.711 22.464 118.115 23.58 120.599 23.58C122.723 23.58 124.019 22.896 124.019 21.6C124.019 20.088 122.759 19.98 119.771 19.584C115.451 19.08 112.103 18.108 112.103 14.292C112.103 10.62 115.307 8.208 120.059 8.244C125.027 8.244 128.447 10.44 128.699 14.22H123.839C123.695 12.744 122.291 11.844 120.239 11.844C118.259 11.844 116.963 12.564 116.963 13.752C116.963 15.156 118.547 15.3 121.211 15.624C125.459 16.056 128.987 17.028 128.987 21.204C128.987 24.876 125.531 27.216 120.563 27.216C115.415 27.216 111.923 24.804 111.707 20.844ZM140.804 27.216C134.648 27.216 130.94 23.508 130.94 17.784C130.94 12.024 134.72 8.28 140.444 8.28C145.988 8.28 149.732 11.736 149.804 17.172C149.804 17.712 149.768 18.324 149.66 18.9H136.232V19.152C136.34 21.78 138.032 23.364 140.588 23.364C142.64 23.364 144.08 22.464 144.512 20.736H149.516C148.94 24.336 145.736 27.216 140.804 27.216ZM136.34 15.588H144.692C144.332 13.32 142.784 12.06 140.48 12.06C138.284 12.06 136.628 13.392 136.34 15.588Z" fill="#1ED5A7"/>
</svg>
