<?xml version="1.0" encoding="utf-8"?>
<!-- Generator: Adobe Illustrator 21.0.0, SVG Export Plug-In . SVG Version: 6.00 Build 0)  -->
<svg version="1.1" id="Layer_1" xmlns="http://www.w3.org/2000/svg" xmlns:xlink="http://www.w3.org/1999/xlink" x="0px" y="0px"
	 viewBox="0 0 150 28" style="enable-background:new 0 0 150 28;" xml:space="preserve">
<style type="text/css">
	.st0{fill:url(#SVGID_1_);}
	.st1{fill:#1C1F28;stroke:#1B1F28;stroke-width:0.6262;stroke-miterlimit:10;}
	.st2{fill:#FFFFFF;stroke:#FFFFFF;stroke-width:0.9393;stroke-miterlimit:10;}
	.st3{fill:#FFFFFF;stroke:#FFFFFF;stroke-miterlimit:10;}
	.st4{fill:#1B1F28;}
	.st5{fill:#FFFFFF;stroke:#FFFFFF;stroke-width:1.1203;stroke-linejoin:round;stroke-miterlimit:10;}
	.st6{fill:#1ED5A7;stroke:#1ED5A7;stroke-width:1.12;stroke-miterlimit:10;}
</style>
<g>

		<linearGradient id="SVGID_1_" gradientUnits="userSpaceOnUse" x1="-312.5" y1="-52.25" x2="-252" y2="-52.25" gradientTransform="matrix(1 0 0 -1 0 30)">
		<stop  offset="0" style="stop-color:#577AB7"/>
		<stop  offset="0.2819" style="stop-color:#4598C0"/>
		<stop  offset="0.7579" style="stop-color:#2AA9A5"/>
		<stop  offset="1" style="stop-color:#27A693"/>
	</linearGradient>
	<path class="st0" d="M-255.4,112.5h-53.8c-1.8,0-3.4-1.5-3.4-3.4V55.4c0-1.8,1.5-3.4,3.4-3.4h53.8c1.8,0,3.4,1.5,3.4,3.4v53.8
		C-252,111-253.5,112.5-255.4,112.5z"/>
	<g>
		<path class="st1" d="M-264.9,67.3l-2.5-1L-286,107c-0.1,0.2-0.3,0.4-0.6,0.4h-5.6c-0.4,0-0.8-0.4-0.6-0.8l19.3-42.5l-2.8-1.1
			c-0.5-0.2-0.5-0.8-0.1-1.1l8.7-4.5c0.4-0.2,0.8,0,0.9,0.4l2.7,8.9C-263.9,67-264.4,67.5-264.9,67.3z"/>
		<path class="st2" d="M-290,88.8l-10.4-23.3c-0.2-0.4,0.1-0.8,0.6-0.8h5.7c0.3,0,0.5,0.1,0.6,0.4l7.3,17.5c0.1,0.1,0.1,0.3,0,0.4
			l-2.6,5.8C-289,89.3-289.8,89.3-290,88.8z"/>
	</g>
</g>
<path class="st3" d="M5,23.8h16v2.6H1.6v-2.6l16-19H1.8V2.2H21v2.6L5,23.8z"/>
<path class="st3" d="M27.4,1.5V5h-3V1.5H27.4z M24.5,8.1h2.8v18.2h-2.8V8.1z"/>
<path class="st3" d="M34.9,26.3h-2.8V0.8h2.8V26.3z"/>
<path class="st3" d="M42.5,26.3h-2.8V0.8h2.8V26.3z"/>
<path class="st3" d="M61.8,11v-3h2.8v18.2h-2.8v-2.9c-1.4,2-3.6,3.2-6.6,3.2c-5.4,0-9-4.2-9-9.4c0-5.2,3.6-9.4,9-9.4
	C58.2,7.8,60.4,9.1,61.8,11z M61.9,17.2c0-3.8-2.3-6.9-6.4-6.9S49,13.5,49,17.2c0,3.8,2.4,6.9,6.6,6.9S61.9,21,61.9,17.2z"/>
<path class="st4" d="M87.7,17.2c0,5.2-3.6,9.4-9,9.4c-3.1,0-5.3-1.2-6.6-3.2v2.9h-2.8V0.8h2.8V11c1.4-2,3.6-3.2,6.6-3.2
	C84.2,7.8,87.7,12,87.7,17.2z M85,17.2c0-3.8-2.4-6.9-6.6-6.9S72,13.5,72,17.2c0,3.8,2.3,6.9,6.4,6.9S85,21,85,17.2z"/>
<path class="st4" d="M105.8,11v-3h2.8v18.2h-2.8v-2.9c-1.4,2-3.6,3.2-6.6,3.2c-5.4,0-9-4.2-9-9.4c0-5.2,3.6-9.4,9-9.4
	C102.3,7.8,104.5,9.1,105.8,11z M106,17.2c0-3.8-2.3-6.9-6.4-6.9S93,13.5,93,17.2c0,3.8,2.4,6.9,6.6,6.9S106,21,106,17.2z"/>
<path class="st4" d="M127.1,13h-2.8c-0.2-1.6-1.4-2.8-4.5-2.8c-2.9,0-4.4,0.8-4.4,2.6c0,4.4,12.3,1.5,12.3,8.4c0,3.5-3,5.5-7.6,5.5
	c-5.2,0-7.9-2.8-8-6h2.9c0.2,1.9,1.6,3.7,5.2,3.7c1.5,0,4.7-0.4,4.7-2.9c0-4.6-12.3-1.7-12.3-8.4c0-3.3,2.5-5.2,7.3-5.2
	C124.8,7.8,126.8,10.3,127.1,13z"/>
<path class="st4" d="M144.9,21.1h3c-1.3,3.3-4,5.5-8.4,5.5c-5.7,0-9.4-4.2-9.4-9.4c0-5.2,3.5-9.4,9.2-9.4c5.7,0,9.2,4.2,9.2,9.4v1.1
	H133c0.4,3.2,2.8,5.8,6.6,5.8C142.1,24.1,143.9,22.9,144.9,21.1z M133,15.7h12.6c-0.5-3.1-2.7-5.5-6.3-5.5S133.5,12.7,133,15.7z"/>
<path class="st5" d="M5,23.8h16v2.6H1.6v-2.6l16-19H1.8V2.2H21v2.6L5,23.8z"/>
<path class="st5" d="M27.4,1.5V5h-3V1.5H27.4z M24.5,8.1h2.8v18.2h-2.8V8.1z"/>
<path class="st5" d="M34.9,26.3h-2.8V0.8h2.8V26.3z"/>
<path class="st5" d="M42.5,26.3h-2.8V0.8h2.8V26.3z"/>
<path class="st5" d="M61.8,11v-3h2.8v18.2h-2.8v-2.9c-1.4,2-3.6,3.2-6.6,3.2c-5.4,0-9-4.2-9-9.4c0-5.2,3.6-9.4,9-9.4
	C58.2,7.8,60.4,9.1,61.8,11z M61.9,17.2c0-3.8-2.3-6.9-6.4-6.9S49,13.5,49,17.2c0,3.8,2.4,6.9,6.6,6.9S61.9,21,61.9,17.2z"/>
<path class="st6" d="M87.7,17.2c0,5.2-3.6,9.4-9,9.4c-3.1,0-5.3-1.2-6.6-3.2v2.9h-2.8V0.8h2.8V11c1.4-2,3.6-3.2,6.6-3.2
	C84.2,7.8,87.7,12,87.7,17.2z M85,17.2c0-3.8-2.4-6.9-6.6-6.9S72,13.5,72,17.2c0,3.8,2.3,6.9,6.4,6.9S85,21,85,17.2z"/>
<path class="st6" d="M105.8,11v-3h2.8v18.2h-2.8v-2.9c-1.4,2-3.6,3.2-6.6,3.2c-5.4,0-9-4.2-9-9.4c0-5.2,3.6-9.4,9-9.4
	C102.3,7.8,104.5,9.1,105.8,11z M106,17.2c0-3.8-2.3-6.9-6.4-6.9S93,13.5,93,17.2c0,3.8,2.4,6.9,6.6,6.9S106,21,106,17.2z"/>
<path class="st6" d="M127.1,13h-2.8c-0.2-1.6-1.4-2.8-4.5-2.8c-2.9,0-4.4,0.8-4.4,2.6c0,4.4,12.3,1.5,12.3,8.4c0,3.5-3,5.5-7.6,5.5
	c-5.2,0-7.9-2.8-8-6h2.9c0.2,1.9,1.6,3.7,5.2,3.7c1.5,0,4.7-0.4,4.7-2.9c0-4.6-12.3-1.7-12.3-8.4c0-3.3,2.5-5.2,7.3-5.2
	C124.8,7.8,126.8,10.3,127.1,13z"/>
<path class="st6" d="M144.9,21.1h3c-1.3,3.3-4,5.5-8.4,5.5c-5.7,0-9.4-4.2-9.4-9.4c0-5.2,3.5-9.4,9.2-9.4c5.7,0,9.2,4.2,9.2,9.4v1.1
	H133c0.4,3.2,2.8,5.8,6.6,5.8C142.1,24.1,143.9,22.9,144.9,21.1z M133,15.7h12.6c-0.5-3.1-2.7-5.5-6.3-5.5S133.5,12.7,133,15.7z"/>
</svg>
