<svg width="49" height="28" viewBox="0 0 49 28" fill="none" xmlns="http://www.w3.org/2000/svg">
<path d="M0.36 5.12V-1.90735e-06H22.64V3.96L8.28 22.88H23V28H1.49012e-08V24.04L14.36 5.12H0.36Z" fill="white"/>
<path d="M26.4 28V-1.90735e-06H37.04C43.52 -1.90735e-06 47.28 2.72 47.28 7.4C47.28 10.92 45.2 12.92 42 13.6C45.72 14.08 48.28 16.04 48.28 20.04C48.28 24.92 44.44 28 37.56 28H26.4ZM37.2 4.72H32.4V11.52H37.2C39.76 11.52 41.28 10.2 41.28 8.12C41.28 6.04 39.8 4.72 37.2 4.72ZM37.6 16.16H32.4V23.24H37.6C40.48 23.24 42.12 21.92 42.12 19.76C42.12 17.48 40.44 16.16 37.6 16.16Z" fill="#1ED5A7"/>
</svg>
